<svg version="1.1" id="Capa_1" xmlns="http://www.w3.org/2000/svg" x="0" y="0" viewBox="0 0 792 612" xml:space="preserve"><style>.st0{fill:#232856}.st1{fill:none}.st2{font-family:&apos;DINAlternate-Bold&apos;}</style><path class="st0" d="M658.31 229.32c-10.42.09-27.96-17.62-28-21.84-.04-4.22 1.71-3.49 7.66-3.54s72.49 1.83 75.97 1.8c3.47-.03 11.71 4.61 11.74 8.09.03 3.46-41.81 15.26-67.37 15.49zM719.57 196.75c.01.87-3.57 1.53-7.61-4.94-18.9-30.24-55.25-98.22-121.13-158.53-3.23-2.96-3.33-12.48 4.62-12.55 31.09-.27 123.72 131.56 124.12 176.02zM574.73 24.66c.06 7.18-19.8-1.51-140.98 115.33-.79.76-14.78-5.67-16.33-5.66s-2.98-.54-1.38 3.69 5.75 10 5.34 11.14-43.46 38.91-51.69 38.98-15.94.14-20.67.19c-14.04.13 50.41-58.74 113.15-104.75 47.53-34.86 96.27-60.4 108.16-60.51 2.69-.02 4.39.3 4.4 1.59zM386.75 205.78c-23.63-2.41-58.44-2.66-60.7.72-2.16 3.24 10.68 27.79 4.77 27.19-5.21-.53-190.21 7.82-192.25 27.85-.83 8.15 18.06 22.91 28 35.11 10.95 13.43 3.15 17.57 8.11 21.86 3.68 3.18 14.54 2.78 26.95 4.04 7.77.79 175.39-9.07 189.38-7.64 13.99 1.43 19.46 3.24 49.3 6.28 29.85 3.04 87.57-2.38 90.39-30.05 3.82-37.31-39.18-74.68-143.95-85.36zM508.66 388.76c-.6 5.88-103.2 27.26-114.83 26.07-9.35-.95-17.64-13.62-37.34-15.63-19.69-2.01-19.16 4.1-17.37 6.3 1.79 2.2 1.66 4 1.51 5.43-1.68 16.44-73.82 19.33-83.62 18.33-9.8-1-15.82-1.45-20.52 2.38s-8.84 8.36-17.37 7.49c-8.53-.87-28.77-15.39-59.6-18.53-25.45-2.59-28.82 3.61-52.34 1.21-3.96-.4-14.89-1.12-14.37-6.18.39-3.79 3.38-3.88 8.73-4.49 13.87-1.58 36.46-5 36.82-8.51.5-4.9-12.91-3.39-12.22-10.19 1.4-13.76 80.08-16.43 80.41-19.59s-9.1-4.76-8.65-9.19c1.03-10.07 141.6-30.43 181.27-26.39 53.92 5.51 130.47 41.86 129.49 51.49z"/><path class="st1" d="M76.15 478.79h505.48v46.09H76.15z"/><text transform="translate(76.145 522.12)" class="st0 st2" font-size="60.866">Mauricio Levy Jofré</text><path class="st1" d="M198.54 539.31h256.31v34.41H198.54z"/><text transform="translate(198.536 568.953)" class="st0 st2" letter-spacing="3" font-size="41.645">constructora</text></svg>